<svg width="47" height="46" viewBox="0 0 47 46" fill="none" xmlns="http://www.w3.org/2000/svg">
<rect x="0.5" width="46" height="46" rx="23" fill="#FD853A"/>
<path d="M8.39016 17.192C9.12616 16.968 9.89416 16.8 10.6942 16.688C11.4942 16.56 12.3342 16.496 13.2142 16.496C13.4222 16.496 13.6302 16.504 13.8382 16.52C14.0622 16.52 14.2782 16.528 14.4862 16.544C14.3422 16.544 14.1902 16.544 14.0302 16.544C13.8862 16.528 13.7422 16.52 13.5982 16.52C12.8142 16.52 12.0542 16.56 11.3182 16.64C10.5982 16.704 9.98216 16.792 9.47016 16.904C9.31016 16.952 9.13416 17 8.94216 17.048C8.76616 17.08 8.58216 17.128 8.39016 17.192ZM10.6222 32.264C10.5102 32.264 10.3982 32.256 10.2862 32.24C10.1742 32.24 10.0542 32.232 9.92616 32.216C9.55816 32.152 9.30216 31.992 9.15816 31.736C9.03016 31.464 8.96616 31.176 8.96616 30.872C8.96616 30.568 9.00616 30.296 9.08616 30.056C9.18216 29.736 9.41416 29.272 9.78216 28.664C10.1502 28.04 10.5982 27.344 11.1262 26.576C11.6542 25.792 12.2142 24.984 12.8062 24.152C13.3982 23.304 13.9822 22.488 14.5582 21.704C15.1342 20.92 15.6542 20.224 16.1182 19.616C16.5822 18.992 16.9342 18.52 17.1742 18.2C16.8542 18.456 16.5902 18.736 16.3822 19.04C16.1902 19.328 16.0142 19.488 15.8542 19.52C16.0462 19.296 16.3022 19 16.6222 18.632C16.9422 18.264 17.1422 17.928 17.2222 17.624C17.0942 17.592 16.9502 17.576 16.7902 17.576C16.6302 17.576 16.4622 17.576 16.2862 17.576C15.5342 17.576 14.6222 17.64 13.5502 17.768C12.4782 17.896 11.4622 18.064 10.5022 18.272C10.3422 18.304 10.0702 18.392 9.68616 18.536C9.30216 18.664 8.86216 18.832 8.36616 19.04C7.88616 19.248 7.40616 19.488 6.92616 19.76C6.44616 20.032 6.03016 20.328 5.67816 20.648C5.34216 20.952 5.12616 21.272 5.03016 21.608C5.09416 21.736 5.12616 21.856 5.12616 21.968C5.12616 22.192 5.01416 22.304 4.79016 22.304C4.59816 22.304 4.39016 22.192 4.16616 21.968C3.94216 21.744 3.83016 21.432 3.83016 21.032C3.83016 20.824 3.86216 20.624 3.92616 20.432C4.00616 20.16 4.12616 19.912 4.28616 19.688C4.44616 19.448 4.63016 19.224 4.83816 19.016L4.74216 19.064L4.91016 18.968L4.83816 19.016C5.36616 18.728 5.88616 18.44 6.39816 18.152C6.92616 17.864 7.53416 17.608 8.22216 17.384C8.92616 17.144 9.71016 16.952 10.5742 16.808C11.4542 16.648 12.4062 16.568 13.4302 16.568C14.0382 16.568 14.6862 16.6 15.3742 16.664C16.0622 16.728 16.7742 16.832 17.5102 16.976C17.6222 17.008 17.6782 17 17.6782 16.952C17.6782 16.92 17.6142 16.896 17.4862 16.88C17.0862 16.8 16.6862 16.736 16.2862 16.688C15.8862 16.624 15.4942 16.584 15.1102 16.568C15.4942 16.584 15.8702 16.616 16.2382 16.664C16.6222 16.696 16.9902 16.752 17.3422 16.832V16.76C17.3422 16.648 17.4062 16.592 17.5342 16.592C17.5662 16.592 17.6462 16.608 17.7742 16.64C17.9022 16.688 18.0622 16.76 18.2542 16.856C18.4622 16.952 18.6622 17.064 18.8542 17.192C19.4142 17.192 20.0142 17.256 20.6542 17.384C21.2942 17.512 21.9022 17.704 22.4782 17.96C23.0542 18.216 23.5262 18.536 23.8942 18.92C24.2622 19.304 24.4462 19.752 24.4462 20.264C24.4462 20.616 24.3502 20.984 24.1582 21.368C24.2062 21.576 24.2302 21.784 24.2302 21.992C24.2302 22.488 24.1262 22.944 23.9182 23.36C23.7102 23.776 23.4222 24.168 23.0542 24.536C23.2302 24.376 23.3982 24.192 23.5582 23.984C23.7342 23.76 23.9262 23.448 24.1342 23.048C23.9902 23.496 23.8142 23.848 23.6062 24.104C23.4142 24.344 23.2222 24.552 23.0302 24.728C22.6622 25.096 22.2622 25.392 21.8302 25.616C21.3982 25.824 20.8462 26.088 20.1742 26.408C20.0142 26.472 19.8062 26.544 19.5502 26.624C19.3102 26.688 19.0462 26.76 18.7582 26.84C19.5582 26.6 20.3342 26.288 21.0862 25.904C21.8542 25.52 22.4942 25.08 23.0062 24.584L22.8142 24.752C22.3022 25.2 21.8382 25.52 21.4222 25.712C21.0062 25.904 20.7582 26.016 20.6782 26.048C20.3742 26.16 19.9742 26.296 19.4782 26.456C18.9822 26.616 18.5102 26.76 18.0622 26.888C17.6142 27.016 17.3022 27.104 17.1262 27.152L17.0782 27.176C17.2382 27.16 17.3982 27.144 17.5582 27.128C17.7182 27.096 17.8782 27.064 18.0382 27.032C18.0862 27.016 18.1342 27 18.1822 26.984C18.1822 26.984 18.1742 26.984 18.1582 26.984C18.1422 26.984 18.1022 27 18.0382 27.032C17.3822 27.176 16.7582 27.288 16.1662 27.368C15.5902 27.448 15.0782 27.488 14.6302 27.488C14.3742 27.488 14.2142 27.472 14.1502 27.44C14.0862 27.392 14.0382 27.336 14.0062 27.272C14.0062 27.192 14.0622 27.12 14.1742 27.056C14.2062 27.04 14.2302 27.024 14.2462 27.008C14.2782 26.992 14.3102 26.976 14.3422 26.96C15.0622 26.8 15.8302 26.576 16.6462 26.288C17.4782 25.984 18.2942 25.632 19.0942 25.232C19.8942 24.816 20.6142 24.376 21.2542 23.912C21.9102 23.432 22.4302 22.944 22.8142 22.448C23.2142 21.936 23.4142 21.44 23.4142 20.96C23.4142 20.512 23.2142 20.12 22.8142 19.784C22.4302 19.448 21.9422 19.168 21.3502 18.944C20.7742 18.704 20.2062 18.528 19.6462 18.416C19.4702 18.608 19.1822 18.936 18.7822 19.4C18.3982 19.864 17.9502 20.416 17.4382 21.056C16.9262 21.696 16.3822 22.376 15.8062 23.096C15.2462 23.816 14.6942 24.528 14.1502 25.232C13.8462 25.632 13.5182 26.08 13.1662 26.576C12.8142 27.056 12.4702 27.552 12.1342 28.064C11.8142 28.56 11.5502 29.032 11.3422 29.48C11.1342 29.928 11.0302 30.312 11.0302 30.632C11.0302 30.792 11.0542 30.92 11.1022 31.016C11.8062 31.128 12.1582 31.328 12.1582 31.616C12.1582 31.776 12.0142 31.92 11.7262 32.048C11.4542 32.192 11.0862 32.264 10.6222 32.264ZM7.93416 17.336H7.95816L7.98216 17.312H8.00616H8.03016C8.04616 17.296 8.05416 17.288 8.05416 17.288C8.07016 17.288 8.07816 17.288 8.07816 17.288C8.09416 17.288 8.10216 17.288 8.10216 17.288C8.11816 17.272 8.12616 17.264 8.12616 17.264C8.14216 17.264 8.15016 17.264 8.15016 17.264C8.16616 17.264 8.17416 17.264 8.17416 17.264C8.19016 17.248 8.19816 17.24 8.19816 17.24C8.21416 17.24 8.21416 17.24 8.19816 17.24C8.21416 17.24 8.23016 17.24 8.24616 17.24H8.19816L8.17416 17.264H8.15016H8.12616L8.10216 17.288H8.07816C8.07816 17.288 8.07016 17.288 8.05416 17.288C8.05416 17.288 8.04616 17.296 8.03016 17.312C8.03016 17.312 8.02216 17.312 8.00616 17.312C8.00616 17.312 7.99816 17.312 7.98216 17.312C7.98216 17.328 7.97416 17.336 7.95816 17.336C7.95816 17.336 7.95016 17.336 7.93416 17.336ZM7.59816 17.456H7.62216H7.64616L7.67016 17.432C7.68616 17.432 7.69416 17.432 7.69416 17.432C7.71016 17.416 7.71016 17.408 7.69416 17.408C7.71016 17.408 7.71816 17.408 7.71816 17.408H7.69416V17.432C7.69416 17.432 7.68616 17.432 7.67016 17.432C7.65416 17.432 7.64616 17.44 7.64616 17.456C7.64616 17.456 7.63816 17.456 7.62216 17.456C7.63816 17.456 7.63816 17.456 7.62216 17.456C7.60616 17.456 7.59816 17.456 7.59816 17.456ZM4.91016 18.968C5.26216 18.632 5.67016 18.344 6.13416 18.104C6.61416 17.864 7.10216 17.648 7.59816 17.456C7.15016 17.632 6.71816 17.84 6.30216 18.08C5.88616 18.304 5.48616 18.552 5.10216 18.824L4.91016 18.968ZM26.9557 32.768C26.6997 32.768 26.4277 32.72 26.1397 32.624C25.8517 32.544 25.6197 32.4 25.4437 32.192C25.2677 31.984 25.2117 31.728 25.2757 31.424C25.3397 31.12 25.5637 30.816 25.9477 30.512C26.3317 30.192 26.8037 29.88 27.3637 29.576C27.9237 29.272 28.4997 29 29.0917 28.76C29.6997 28.52 30.2677 28.328 30.7957 28.184C31.3397 28.024 31.7637 27.936 32.0677 27.92C32.1157 27.92 32.1397 27.936 32.1397 27.968C32.1397 28.032 32.0917 28.112 31.9957 28.208C31.8997 28.304 31.8117 28.368 31.7317 28.4C31.3797 28.496 30.9237 28.656 30.3637 28.88C29.8197 29.088 29.2677 29.328 28.7077 29.6C28.1637 29.872 27.6837 30.152 27.2677 30.44C27.0277 30.6 26.8597 30.736 26.7637 30.848C26.6677 30.944 26.6197 31.024 26.6197 31.088C26.6197 31.168 26.6837 31.216 26.8117 31.232C26.9557 31.248 27.0677 31.256 27.1477 31.256C27.6757 31.224 28.2677 31.112 28.9237 30.92C29.5797 30.712 30.2117 30.44 30.8197 30.104C31.4437 29.768 31.9717 29.4 32.4037 29C32.8357 28.584 33.0917 28.168 33.1717 27.752C33.2197 27.528 33.0197 27.36 32.5717 27.248C32.1397 27.136 31.5237 27.08 30.7237 27.08C30.5477 27.08 30.3637 27.08 30.1717 27.08C29.9797 27.08 29.7797 27.088 29.5717 27.104C29.4277 27.056 29.3557 26.96 29.3557 26.816C29.3557 26.544 29.4837 26.392 29.7397 26.36C30.8757 26.024 32.0037 25.6 33.1237 25.088C34.2437 24.56 35.3077 23.992 36.3157 23.384C37.3397 22.776 38.2517 22.176 39.0517 21.584C39.8517 20.992 40.4837 20.464 40.9477 20C41.0437 19.904 41.1237 19.808 41.1877 19.712C41.2517 19.6 41.2837 19.488 41.2837 19.376C41.2837 19.168 41.1477 18.984 40.8757 18.824C40.4437 18.568 39.8677 18.376 39.1477 18.248C38.4437 18.104 37.7237 18.032 36.9877 18.032C35.7237 18.032 34.3557 18.208 32.8837 18.56C31.4117 18.912 29.9637 19.408 28.5397 20.048C27.1157 20.688 25.8277 21.448 24.6757 22.328C24.2917 22.632 23.9477 22.968 23.6437 23.336C23.3557 23.704 23.1637 24.12 23.0677 24.584C23.0037 24.872 23.0517 25.12 23.2117 25.328C23.3717 25.536 23.4357 25.72 23.4037 25.88C23.4037 25.96 23.3637 26 23.2837 26C23.1717 26 23.0357 25.952 22.8757 25.856C22.6197 25.648 22.3637 25.376 22.1077 25.04C21.8517 24.688 21.7237 24.288 21.7237 23.84C21.7237 23.088 22.1397 22.32 22.9717 21.536C23.8197 20.736 24.8997 19.992 26.2117 19.304C25.8117 19.48 25.4037 19.672 24.9877 19.88C24.5717 20.072 24.1477 20.28 23.7157 20.504C23.6997 20.52 23.6837 20.528 23.6677 20.528C23.6517 20.528 23.6437 20.528 23.6437 20.528C23.6117 20.528 23.6357 20.496 23.7157 20.432C23.8117 20.368 23.8997 20.312 23.9797 20.264C24.8597 19.768 25.7397 19.336 26.6197 18.968C27.4997 18.584 28.3637 18.256 29.2117 17.984C29.2437 17.968 29.2677 17.96 29.2837 17.96L29.2117 17.984C28.6677 18.16 28.1477 18.368 27.6517 18.608C27.1557 18.832 26.6757 19.064 26.2117 19.304C28.3397 18.36 30.3157 17.704 32.1397 17.336C33.9637 16.968 35.7957 16.776 37.6357 16.76C37.7637 16.76 37.8517 16.76 37.8997 16.76C37.9477 16.744 37.9717 16.736 37.9717 16.736C37.9717 16.704 37.9077 16.68 37.7797 16.664C37.6517 16.648 37.5237 16.64 37.3957 16.64C36.3237 16.624 35.1397 16.704 33.8437 16.88C32.5637 17.04 31.2277 17.336 29.8357 17.768C30.8917 17.432 31.9797 17.152 33.0997 16.928C34.2197 16.688 35.3157 16.536 36.3877 16.472C36.5317 16.456 36.6757 16.448 36.8197 16.448C36.9797 16.448 37.1317 16.448 37.2757 16.448C38.1077 16.448 38.8917 16.528 39.6277 16.688C40.3637 16.848 40.9637 17.136 41.4277 17.552C41.9077 17.952 42.1477 18.52 42.1477 19.256C42.4197 19.624 42.5557 19.968 42.5557 20.288C42.5557 20.672 42.3637 21.08 41.9797 21.512L42.0277 21.44C41.8677 21.584 41.5877 21.8 41.1877 22.088C40.7877 22.36 40.3557 22.656 39.8917 22.976C39.4277 23.296 39.0037 23.576 38.6197 23.816C38.2357 24.056 37.9717 24.216 37.8277 24.296L36.3877 25.04C36.6757 24.928 36.9637 24.816 37.2517 24.704C37.5557 24.592 37.8437 24.472 38.1157 24.344L37.7317 24.56C37.5237 24.672 37.2437 24.808 36.8917 24.968C36.5557 25.112 36.2037 25.256 35.8357 25.4C35.4677 25.544 35.1317 25.664 34.8277 25.76C34.5237 25.856 34.2997 25.912 34.1557 25.928C34.1237 25.928 34.1717 25.904 34.2997 25.856C34.4437 25.792 34.6117 25.728 34.8037 25.664C35.0117 25.6 35.1877 25.544 35.3317 25.496C35.4437 25.464 35.5877 25.416 35.7637 25.352C35.9397 25.272 36.1317 25.176 36.3397 25.064C35.5717 25.352 34.7877 25.608 33.9877 25.832C33.2037 26.056 32.4357 26.264 31.6837 26.456C31.9717 26.456 32.2997 26.504 32.6677 26.6C33.0357 26.68 33.3957 26.808 33.7477 26.984C34.0997 27.16 34.3877 27.376 34.6117 27.632C34.8357 27.872 34.9477 28.16 34.9477 28.496C34.9477 28.592 34.9397 28.672 34.9237 28.736C34.8437 29.136 34.5477 29.568 34.0357 30.032C33.5397 30.48 32.9077 30.912 32.1397 31.328C31.3717 31.728 30.5317 32.056 29.6197 32.312C28.7237 32.584 27.8357 32.736 26.9557 32.768ZM29.2837 17.96C29.2997 17.96 29.3077 17.952 29.3077 17.936C29.3237 17.936 29.3317 17.936 29.3317 17.936C29.3477 17.936 29.3557 17.936 29.3557 17.936C29.3717 17.92 29.3877 17.912 29.4037 17.912C29.4037 17.912 29.4117 17.912 29.4277 17.912C29.4277 17.912 29.4357 17.904 29.4517 17.888C29.4837 17.888 29.4997 17.888 29.4997 17.888L29.5237 17.864H29.5477H29.5717L29.6197 17.84C29.6037 17.84 29.5877 17.848 29.5717 17.864C29.5717 17.864 29.5637 17.864 29.5477 17.864C29.5477 17.864 29.5397 17.864 29.5237 17.864C29.5077 17.88 29.4997 17.888 29.4997 17.888C29.4997 17.888 29.4837 17.888 29.4517 17.888L29.4277 17.912H29.4037L29.3557 17.936H29.3317H29.3077L29.2837 17.96ZM22.5637 34.064C22.2597 33.808 22.0357 33.552 21.8917 33.296C21.7637 33.056 21.6997 32.824 21.6997 32.6C21.6997 32.472 21.7237 32.336 21.7717 32.192C21.8997 31.824 22.1557 31.344 22.5397 30.752C22.9397 30.144 23.4197 29.472 23.9797 28.736C24.5557 28 25.1637 27.24 25.8037 26.456C26.4597 25.672 27.0997 24.912 27.7237 24.176C28.3477 23.424 28.9157 22.752 29.4277 22.16C29.9557 21.552 30.3717 21.064 30.6757 20.696C30.5477 20.76 30.4437 20.792 30.3637 20.792C30.2997 20.792 30.2677 20.768 30.2677 20.72C30.2677 20.656 30.3157 20.576 30.4117 20.48C30.5877 20.256 30.7397 20.072 30.8677 19.928C30.9957 19.768 31.0597 19.688 31.0597 19.688C31.1557 19.656 31.3157 19.696 31.5397 19.808C31.7797 19.904 32.0277 20.04 32.2837 20.216C32.5397 20.376 32.7477 20.552 32.9077 20.744C33.0837 20.92 33.1397 21.072 33.0757 21.2C32.5317 21.728 31.9157 22.344 31.2277 23.048C30.5397 23.752 29.8197 24.512 29.0677 25.328C28.3157 26.144 27.5717 26.984 26.8357 27.848C26.0997 28.696 25.4117 29.536 24.7717 30.368C24.1317 31.184 23.5797 31.952 23.1157 32.672C23.1477 32.624 23.1877 32.576 23.2357 32.528C23.2837 32.48 23.3397 32.424 23.4037 32.36L25.4437 29.936C25.6837 29.68 25.8197 29.552 25.8517 29.552C25.8677 29.552 25.8757 29.56 25.8757 29.576C25.8757 29.624 25.8277 29.696 25.7317 29.792C25.3797 30.224 24.9957 30.696 24.5797 31.208C24.1797 31.704 23.7957 32.2 23.4277 32.696C23.0597 33.192 22.7717 33.648 22.5637 34.064ZM41.2597 22.208C41.3877 22.08 41.5157 21.96 41.6437 21.848C41.7717 21.736 41.8837 21.624 41.9797 21.512C41.9157 21.592 41.8197 21.696 41.6917 21.824C41.5797 21.936 41.4357 22.064 41.2597 22.208ZM38.3797 24.2C38.9077 23.896 39.4117 23.576 39.8917 23.24C40.3877 22.904 40.8037 22.592 41.1397 22.304L41.2597 22.208C41.2597 22.208 41.2517 22.216 41.2357 22.232C41.2357 22.232 41.2037 22.256 41.1397 22.304L40.4677 22.88C40.1637 23.136 39.8357 23.368 39.4837 23.576C39.1317 23.784 38.7637 23.992 38.3797 24.2Z" fill="black"/>
</svg>
